<svg width="16" height="16" viewBox="0 0 16 16" fill="none" xmlns="http://www.w3.org/2000/svg">
<path d="M1.11625 11.3425C1.05 11.1862 0.986251 11.03 0.923751 10.8737C0.452501 9.685 1.04375 8.6125 1.57125 7.5625L2.33625 6.0425C2.49 5.73625 2.72625 5.47875 3.01625 5.29875L5.21625 3.93375L7.39 1.68625C7.52495 1.54624 7.69714 1.44778 7.88625 1.4025L9.36625 1.045C10.0825 0.87375 10.39 0.90125 10.6213 1.23C11.4225 2.3675 11.9588 3.30375 12.6725 4.4375C13.0613 5.055 13.9588 6.47375 14.015 6.5675C14.1875 6.8575 14.1175 7.1 14.1113 7.4325C14.0963 8.19875 14.2313 8.96875 14.5113 9.6825C14.595 9.895 14.6913 10.105 14.735 10.3287C14.775 10.53 14.7213 11.8088 14.68 12.2413C14.6463 12.5925 13.8163 13.9038 13.5188 14.0625C13.1913 14.2375 10.7638 15.13 10.2275 15.2825C9.69125 15.435 7.36625 14.9038 6.15875 14.7188C5.4125 14.605 4.665 14.49 3.91875 14.3763C3.27125 14.2775 2.6275 14.3525 2.265 13.6987C1.83875 12.9337 1.45625 12.1475 1.11625 11.3425Z" fill="url(#paint0_linear_436_29)"/>
<path d="M3.9175 14.3749C4.66375 14.4887 5.41125 14.6037 6.1575 14.7174C6.54625 14.7774 7.05125 14.8724 7.575 14.9699C7.2225 14.5524 6.69625 14.0574 6.34375 13.6399C6.2675 13.5499 6.19 13.4562 6.1625 13.3412C6.13375 13.2187 6.16625 13.0924 6.2 12.9712C6.3075 12.5737 6.335 12.1424 6.4425 11.7449C5.77625 11.8999 4.24125 12.1949 4.115 12.1587C3.975 12.1187 3.86125 12.0174 3.7525 11.9187C2.96125 11.1962 2.3425 10.4674 1.7375 9.58619C1.66625 9.48244 1.59375 9.37494 1.5675 9.25119C1.5425 9.13494 1.56125 9.01494 1.58 8.89869C1.625 8.60869 1.725 7.80494 1.805 7.09619L1.57 7.56244C1.04375 8.61244 0.452498 9.68494 0.924998 10.8737C0.987498 11.0312 1.05125 11.1874 1.1175 11.3424C1.4567 12.1472 1.83934 12.9329 2.26375 13.6962C2.625 14.3512 3.27 14.2762 3.9175 14.3749Z" fill="url(#paint1_linear_436_29)"/>
<path d="M10.6312 1.24372C10.4775 1.06247 10.1775 1.09747 9.86248 1.38497L8.72998 2.51747C8.65998 2.58747 8.62248 2.68372 8.62873 2.78247L8.74998 5.09497C8.75373 5.17247 8.78248 5.24497 8.83248 5.30372C9.23498 5.77372 10.6575 8.03247 11.07 8.03247C11.4812 8.03247 12.2 6.42997 12.5662 6.43872C12.6287 6.43997 12.955 6.45997 13.2737 6.55747C13.5712 6.64747 13.6875 6.23872 13.6262 5.94872C13.3187 5.46122 12.905 4.80747 12.6725 4.43747C11.9612 3.30872 11.4262 2.37497 10.6312 1.24372Z" fill="url(#paint2_linear_436_29)"/>
<path d="M5.36122 5.79625C5.77747 5.73375 7.16622 5.4975 7.42747 5.395C7.93747 5.19375 8.38747 4.33625 8.68497 3.875C8.68497 3.875 8.78747 5.37875 8.68497 5.96625C8.61372 6.375 8.34497 8.5125 8.07497 9.025L6.44247 11.745L4.04372 9.34625C3.83997 9.1425 3.70997 9.035 3.63622 8.74625C3.46747 8.08625 3.16122 7.1125 3.15997 6.53875C3.15872 5.965 4.70497 5.89375 5.36122 5.79625Z" fill="url(#paint3_linear_436_29)"/>
<path d="M8.395 2.59254C8.235 2.40129 8.19 2.13004 8.245 1.88754C8.29125 1.68504 8.71125 1.29379 8.8475 1.17004L7.88625 1.40254C7.69735 1.44835 7.52529 1.54673 7.39 1.68629L5.21625 3.93379C5.21625 3.93379 7.32125 3.05629 8.395 2.59254Z" fill="url(#paint4_linear_436_29)"/>
<path d="M14.51 9.68254C14.3002 9.14669 14.1712 8.58259 14.1275 8.00879C13.41 8.50004 13.0087 9.13754 11.8537 9.29379C11.5475 9.33504 11.0737 9.39254 10.775 9.47129C10.405 9.56879 10.0625 9.84254 9.50748 9.89379C9.11248 9.93129 8.11623 9.90254 8.26623 10.125C8.41623 10.3475 9.30998 10.7963 9.53248 10.9775C9.84873 11.2313 10.1237 11.53 10.3875 11.8375C10.525 11.9988 10.7312 12.39 10.9712 12.4963C11.0325 12.5238 11.0975 12.5313 11.1625 12.5113C11.2762 12.4775 11.3675 12.395 11.4562 12.3163C12.3167 11.5539 13.284 10.9214 14.3275 10.4388C14.4387 10.3875 14.5587 10.33 14.6137 10.22C14.6375 10.1713 14.6475 10.105 14.6487 10.0338C14.605 9.91629 14.5562 9.80004 14.51 9.68254Z" fill="url(#paint5_linear_436_29)"/>
<path d="M14.7338 10.3287C14.7175 10.2475 14.6938 10.1675 14.6663 10.0887C14.645 10.1625 14.5988 10.2437 14.4988 10.32C14.2113 10.54 13.1025 10.8787 11.8825 11.9475C11.0863 12.645 11.085 12.7387 10.9138 13.5075C10.6338 14.7662 10.1888 15.2237 10.1038 15.3012C10.15 15.2962 10.1913 15.29 10.225 15.28C10.7625 15.1287 13.1888 14.235 13.5163 14.06C13.8138 13.9012 14.6438 12.59 14.6775 12.2387C14.72 11.8087 14.7738 10.53 14.7338 10.3287Z" fill="url(#paint6_linear_436_29)"/>
<defs>
<linearGradient id="paint0_linear_436_29" x1="10.952" y1="2.63" x2="5.1935" y2="17.2605" gradientUnits="userSpaceOnUse">
<stop stop-color="#9E958E"/>
<stop offset="0.46" stop-color="#8E8884"/>
<stop offset="1" stop-color="#757575"/>
</linearGradient>
<linearGradient id="paint1_linear_436_29" x1="1.10737" y1="15.0171" x2="5.89637" y2="9.69194" gradientUnits="userSpaceOnUse">
<stop stop-color="#37474F"/>
<stop offset="0.612" stop-color="#42565F" stop-opacity="0.192"/>
<stop offset="0.757" stop-color="#455A64" stop-opacity="0"/>
</linearGradient>
<linearGradient id="paint2_linear_436_29" x1="12.4441" y1="8.33772" x2="9.34723" y2="1.4681" gradientUnits="userSpaceOnUse">
<stop stop-color="#9E958E"/>
<stop offset="0.442" stop-color="#AEA298"/>
<stop offset="1" stop-color="#C9B8A9"/>
</linearGradient>
<linearGradient id="paint3_linear_436_29" x1="4.68772" y1="13.0681" x2="5.93772" y2="6.28687" gradientUnits="userSpaceOnUse">
<stop stop-color="#4C5C64"/>
<stop offset="1" stop-color="#455A64" stop-opacity="0"/>
</linearGradient>
<linearGradient id="paint4_linear_436_29" x1="5.2165" y1="2.55204" x2="8.84775" y2="2.55204" gradientUnits="userSpaceOnUse">
<stop stop-color="#4C5C64"/>
<stop offset="1" stop-color="#455A64" stop-opacity="0"/>
</linearGradient>
<linearGradient id="paint5_linear_436_29" x1="10.9076" y1="9.57591" x2="15.202" y2="11.3459" gradientUnits="userSpaceOnUse">
<stop stop-color="#9E958E"/>
<stop offset="0.25" stop-color="#AEA298"/>
<stop offset="0.566" stop-color="#C9B8A9"/>
</linearGradient>
<linearGradient id="paint6_linear_436_29" x1="13.0808" y1="15.4196" x2="12.2008" y2="11.9484" gradientUnits="userSpaceOnUse">
<stop stop-color="#37474F"/>
<stop offset="0.808" stop-color="#42565F" stop-opacity="0.192"/>
<stop offset="1" stop-color="#455A64" stop-opacity="0"/>
</linearGradient>
</defs>
</svg>
