<svg width="16" height="16" viewBox="0 0 16 16" fill="none" xmlns="http://www.w3.org/2000/svg">
<path d="M2.61499 2.34372L13.5975 2.05872V13.1212C13.5975 13.9075 11.1387 14.545 8.10624 14.545C5.07374 14.545 2.61499 13.9075 2.61499 13.1212" fill="#B7D5E5"/>
<path d="M7.99998 3.535C11.1004 3.535 13.6137 2.89757 13.6137 2.11125C13.6137 1.32493 11.1004 0.6875 7.99998 0.6875C4.89959 0.6875 2.38623 1.32493 2.38623 2.11125C2.38623 2.89757 4.89959 3.535 7.99998 3.535Z" fill="#E0E0E0"/>
<path d="M8.00001 2.70252C9.28753 2.70252 10.3313 2.43781 10.3313 2.11127C10.3313 1.78473 9.28753 1.52002 8.00001 1.52002C6.7125 1.52002 5.66876 1.78473 5.66876 2.11127C5.66876 2.43781 6.7125 2.70252 8.00001 2.70252Z" fill="#82AEC0"/>
<path d="M8.00003 2.52374C9.05351 2.52374 9.90753 2.32731 9.90753 2.08499C9.90753 1.84268 9.05351 1.64624 8.00003 1.64624C6.94655 1.64624 6.09253 1.84268 6.09253 2.08499C6.09253 2.32731 6.94655 2.52374 8.00003 2.52374Z" fill="#2F7889"/>
<path d="M7.99998 0.6875C7.73498 0.6875 7.34998 0.69625 7.22123 0.70125C7.09123 0.70625 7.10373 0.77625 7.22123 0.7825C7.33873 0.78875 9.07623 0.87625 10.0275 0.9825C11.3987 1.135 12.4925 1.44 12.9337 1.71C13.0875 1.80375 13.5 1.96875 13.3 2.38125C13.2475 2.48875 13.1087 2.7025 12.4212 2.98875C12.1625 3.09625 13.34 3.17375 13.5975 2.90875C13.5975 2.90875 13.6137 2.3575 13.6137 2.1125C13.6137 1.325 11.1 0.6875 7.99998 0.6875Z" fill="#B7D5E5"/>
<path d="M10.5162 4.98623C10.5162 4.98623 8.97873 4.34623 5.96373 3.89748C2.96623 3.45123 2.54248 2.44373 2.54248 2.44373V12.9675C2.92123 14.5825 7.56748 14.6625 8.98123 14.8212C9.72373 14.905 10.7825 15.4612 10.7825 15.4612C11.1737 14.6887 10.365 12.41 10.3237 11.8225C10.2562 10.8662 10.6637 10.8862 10.6637 9.94123C10.6637 8.99623 10.3125 8.65748 10.1987 7.50248C10.085 6.34748 10.5337 6.16373 10.5162 4.98623Z" fill="white"/>
<path d="M5.78623 4.18502C8.69373 4.66377 10.5162 4.98752 10.5162 4.98752C10.4525 4.96127 8.99498 4.28502 5.99248 3.83752C3.18248 3.41877 2.79998 2.55877 2.38623 2.17627C2.38623 2.17627 2.47748 3.64002 5.78623 4.18502Z" fill="#EEEEEE"/>
<path d="M10.2487 5.91621C10.0812 6.34746 9.88997 6.83621 9.95372 7.48746C10.0125 8.09121 10.1312 8.49371 10.2362 8.84871C10.4287 9.37246 10.5687 9.93996 10.2712 10.78C9.99997 11.5475 9.93997 12.3787 10.3962 13.585C10.4575 13.7475 10.765 14.6125 10.8112 15.5612C10.8112 15.5612 10.8125 15.5612 10.8125 15.5625C10.8125 15.5625 11.0637 14.8537 10.9012 14.0487C10.6925 13.0137 10.4487 12.8912 10.4187 12.1687C10.3787 11.175 10.7787 10.9612 10.8125 9.98121C10.85 8.86871 10.4475 8.64871 10.33 7.44996C10.2175 6.29996 10.6987 6.09621 10.5162 4.98621C10.455 5.28871 10.395 5.53871 10.2487 5.91621Z" fill="#81B6CC"/>
<path d="M9.11123 14.6713C8.88748 14.6313 8.58623 14.6225 8.23998 14.5963C7.25998 14.52 5.91873 14.4163 4.77498 14.1563C3.29873 13.8213 2.86248 13.3888 2.76498 13.0738C2.76498 13.0738 2.80373 4.22252 2.77998 3.71002C2.74748 2.99377 2.38623 2.17627 2.38623 2.17627V13.1238C2.77873 14.7988 7.60123 14.8838 9.06873 15.0488C9.83873 15.135 10.4275 15.365 10.8137 15.5638C10.8137 15.5625 10.7487 14.9638 9.11123 14.6713Z" fill="#B7D5E5"/>
<path d="M13.3338 3.38999C13.3163 3.88499 13.2188 13.1225 13.2188 13.1225C13.2138 13.1837 11.845 14.0937 10.6425 13.1487L10.8138 14.3612C12.4763 14.1162 13.5988 13.6537 13.5988 13.1225L13.615 2.10999C13.6138 2.11124 13.36 2.62374 13.3338 3.38999Z" fill="#81B6CC"/>
</svg>
