<svg width="16" height="16" viewBox="0 0 16 16" fill="none" xmlns="http://www.w3.org/2000/svg">
<g clip-path="url(#clip0_436_59)">
<path d="M4.57625 15.4913L10.6462 6.82503L9.6475 4.87378C8.81125 5.45253 6.99625 6.70878 6.72125 6.88253C6.6475 6.92878 6.59125 6.99503 6.55875 7.07503C6.55875 7.07503 4.49875 12.4463 4.16375 13.3163C3.8 14.2625 3.79375 14.6463 3.8875 14.9288C3.96875 15.1775 4.57625 15.4913 4.57625 15.4913Z" fill="#82AEC0"/>
<path d="M14.0912 0.710034C12.81 0.128784 11.2312 0.846284 10.565 2.31378C10.2987 2.90003 10.2937 3.57753 10.2962 3.83128C10.3 4.18128 9.75998 4.69003 9.58873 4.84128C9.55873 4.86753 9.55248 4.91128 9.57248 4.94503L10.6225 6.77503C10.65 6.82253 10.7137 6.83128 10.7537 6.79378L10.9637 6.59378C11.545 6.14503 12.0837 6.17253 12.2925 6.20253C13.4275 6.36378 14.6412 5.65878 15.2037 4.42003C15.8712 2.95253 15.3725 1.29128 14.0912 0.710034ZM12.1612 4.96003C11.3925 4.61128 11.0937 3.61503 11.4925 2.73503C11.8925 1.85503 12.8387 1.42378 13.6075 1.77253C14.3762 2.12128 14.675 3.11753 14.2762 3.99753C13.8775 4.87878 12.93 5.31003 12.1612 4.96003Z" fill="#DE3E31"/>
<path d="M8.00002 8.42754C8.31414 8.42754 8.56877 8.1729 8.56877 7.85879C8.56877 7.54468 8.31414 7.29004 8.00002 7.29004C7.68591 7.29004 7.43127 7.54468 7.43127 7.85879C7.43127 8.1729 7.68591 8.42754 8.00002 8.42754Z" fill="#A8E3F0"/>
<path d="M6.14624 8.14876L7.58124 11.2013L8.05874 10.5188L6.23749 7.91126L6.14624 8.14876ZM9.72749 8.13626L10.0537 7.67126L9.81749 7.02376C9.73249 6.77376 9.69624 6.64751 9.53374 6.57001L8.09249 5.94751L7.93749 6.05501L9.72749 8.13626Z" fill="#2F7889"/>
<path d="M11.4238 15.4912L5.35376 6.82498L6.31876 4.84998C7.13876 5.41748 9.00001 6.70623 9.27876 6.88123C9.35251 6.92748 9.40876 6.99373 9.44126 7.07373C9.44126 7.07373 11.5013 12.445 11.8363 13.315C12.2 14.2612 12.2063 14.645 12.1125 14.9275C12.0313 15.1775 11.4238 15.4912 11.4238 15.4912Z" fill="#82AEC0"/>
<path d="M7.50622 9.51879L7.12872 9.35754L11.4237 15.49C11.4237 15.49 11.8862 14.9963 11.2962 14.0863L8.67622 10.495C8.39021 10.0621 7.98339 9.72265 7.50622 9.51879Z" fill="#B9E4EA"/>
<path d="M8.00002 8.42754C8.31414 8.42754 8.56877 8.1729 8.56877 7.85879C8.56877 7.54468 8.31414 7.29004 8.00002 7.29004C7.68591 7.29004 7.43127 7.54468 7.43127 7.85879C7.43127 8.1729 7.68591 8.42754 8.00002 8.42754Z" fill="#B9E4EA"/>
<path d="M0.794977 4.42003C1.35748 5.66003 2.57123 6.36378 3.70623 6.20253C3.91498 6.17253 4.45248 6.14503 5.03498 6.59378L5.24498 6.79378C5.28498 6.83128 5.34873 6.82253 5.37623 6.77503L6.42623 4.94503C6.44623 4.91003 6.43998 4.86753 6.40998 4.84128C6.23998 4.69003 5.69873 4.18128 5.70248 3.83128C5.70498 3.57753 5.69998 2.90003 5.43373 2.31378C4.76873 0.846284 3.18998 0.128784 1.90873 0.710034C0.627477 1.29128 0.128727 2.95253 0.794977 4.42003ZM1.72373 3.99878C1.32373 3.11878 1.62373 2.12253 2.39248 1.77378C3.16123 1.42503 4.10748 1.85503 4.50748 2.73628C4.90748 3.61628 4.60748 4.61253 3.83873 4.96128C3.06998 5.31003 2.12248 4.87878 1.72373 3.99878Z" fill="#DE3E31"/>
<path d="M11.5837 1.34381C11.5087 1.43256 11.465 1.56381 11.5362 1.67506C11.615 1.79881 11.9675 1.81256 12.7075 1.29756C12.9137 1.15381 12.8612 0.943809 12.6075 0.910059C12.2412 0.853809 11.8087 1.05631 11.5837 1.34381ZM2.21373 1.46256C1.90123 1.64131 1.76873 1.74631 1.51623 2.16506C1.43748 2.29506 1.25873 2.63131 1.07998 2.47881C0.962477 2.37881 0.971226 2.14756 1.04498 1.93756C1.19623 1.51131 1.45623 1.19881 1.82123 1.01381C1.95248 0.947558 2.27498 0.843808 2.45373 0.913808C2.80373 1.05006 2.48873 1.30631 2.21373 1.46256Z" fill="#FF7555"/>
</g>
<defs>
<clipPath id="clip0_436_59">
<rect width="16" height="16" fill="white"/>
</clipPath>
</defs>
</svg>
